<?xml version="1.0" encoding="UTF-8" standalone="no"?>
<!-- Created with Inkscape (http://www.inkscape.org/) -->

<svg
   width="1080"
   height="1080"
   viewBox="0 0 1080 1080"
   version="1.1"
   id="svg1"
   xmlns="http://www.w3.org/2000/svg"
   xmlns:svg="http://www.w3.org/2000/svg">
  <defs
     id="defs1" />
  <g
     id="layer1">
    <g
       id="g6-6-2-4"
       transform="matrix(18.597139,0,0,18.597139,-130.22797,118.73059)">
      <g
         id="g4-6-2-26"
         transform="matrix(0.10694555,0,0,0.10694555,16.123909,5.241252)"
         style="fill:#ffffff;fill-opacity:1">
        <path
           id="path2-2-99-4"
           style="fill:#59a5d8;fill-opacity:1;fill-rule:nonzero;stroke:none;stroke-width:0.0671727"
           d="M 155.32818,16.855607 -7.4179089,221.47866 H 46.369202 l 37.80273,-49.40235 h 78.341798 l -0.9707,49.40235 h 44.66601 v -27.67969 c 18.91252,17.12518 44.66936,27.46875 73.73438,27.46875 31.72373,0 64.29758,-15.0134 82.70898,-38.24023 l -32.00781,-31.43946 c -13.31299,16.4284 -29.74147,24.64258 -49.00195,24.64258 -33.13973,0 -58.06641,-24.6436 -58.06641,-56.93359 0,-32.857613 24.35932,-57.500007 56.36719,-57.500006 20.11088,0 37.38833,8.780122 51.26758,26.341796 l 32.85742,-32.289062 c -18.12726,-23.50983 -51.26874,-38.806641 -84.125,-38.806641 -28.98576,0 -54.78088,10.383143 -73.73438,27.601563 V 16.855607 Z m 9.49805,49.69336 -1.32031,65.478523 h -48.81836 z" />
        <path
           style="fill:#133c55;fill-opacity:1"
           id="path1-5-6-1"
           transform="matrix(0.52941179,0,0,0.52941179,123.16676,68.470451)"
           d="m 266.0998,158.75272 -7.57,-27.14044 A 44.755026,44.755026 42.714724 0 0 223.97086,99.705763 l -22.88408,-4.454133 29.58965,-8.253135 a 40.638124,40.638124 132.71472 0 0 28.97152,-31.379951 l 4.93993,-25.379936 6.45433,23.140479 a 51.478607,51.478607 42.714724 0 0 39.75076,36.69986 l 18.80793,3.660756 -32.14662,8.966327 a 36.340096,36.340096 132.71472 0 0 -25.90739,28.0611 z" />
        <circle
           style="fill:#133c55;fill-opacity:1;stroke-width:0.896951"
           id="path3-8-0-28"
           cx="360.76794"
           cy="116.59111"
           r="10" />
        <rect
           style="fill:#133c55;fill-opacity:1;stroke-width:0.728869"
           id="rect3-6-2-89"
           width="76.352501"
           height="6.4257054"
           x="284.05399"
           y="114.52875"
           ry="0" />
      </g>
      <g
         id="text1-2-7-2"
         style="font-weight:bold;font-size:8.44006px;font-family:'Red Hat Display';-inkscape-font-specification:'Red Hat Display Bold';letter-spacing:0px;fill:#ffffff;stroke-width:0.0879172"
         aria-label="Atlas Connect">
        <path
           style="fill:#59a5d8"
           d="m 8.0710295,38.166306 h 1.274449 L 9.9531628,36.613335 H 12.39234 l 0.599244,1.552971 h 1.32509 l -2.396977,-5.908042 h -1.41793 z m 2.2619355,-2.532018 0.852447,-2.177536 0.835565,2.177536 z m 4.346641,1.291329 c 0,0.860886 0.506404,1.308209 1.485451,1.308209 0.253202,0 0.649885,-0.05908 0.894646,-0.135041 v -0.945287 c -0.227881,0.07596 -0.396683,0.101281 -0.616124,0.101281 -0.447323,0 -0.607684,-0.151921 -0.607684,-0.565484 v -1.949654 h 1.249128 v -0.970607 h -1.249128 v -1.384169 l -1.156289,0.261642 v 1.122527 H 13.77652 v 0.970607 h 0.903086 z m 4.135628,-4.920555 -1.156289,0.253202 v 5.908042 h 1.156289 z m 2.295691,6.237204 c 0.506404,0 0.903087,-0.118161 1.274449,-0.379803 v 0.303843 h 1.139408 v -2.852741 c 0,-1.038127 -0.683644,-1.628931 -1.873693,-1.628931 -0.633004,0 -1.266009,0.151921 -1.958094,0.472643 l 0.422003,0.852446 c 0.557044,-0.244762 0.970607,-0.362922 1.34197,-0.362922 0.616124,0 0.928406,0.261642 0.928406,0.768045 v 0.312282 c -0.346042,-0.10972 -0.708965,-0.168801 -1.071887,-0.168801 -1.130968,0 -1.806173,0.497964 -1.806173,1.33353 0,0.801805 0.658325,1.350409 1.603611,1.350409 z m -0.497963,-1.37573 c 0,-0.337602 0.312282,-0.548604 0.844006,-0.548604 0.337602,0 0.641444,0.05064 0.928406,0.160362 v 0.658324 c -0.270082,0.185682 -0.590804,0.278522 -0.970607,0.278522 -0.489523,0 -0.801805,-0.211001 -0.801805,-0.548604 z m 3.418227,0.776486 c 0.497964,0.396683 1.215369,0.607684 2.017175,0.607684 1.105647,0 1.924333,-0.624564 1.924333,-1.45169 0,-0.683645 -0.481083,-1.130968 -1.341969,-1.257569 l -0.844006,-0.126601 c -0.430443,-0.05908 -0.599244,-0.177241 -0.599244,-0.413563 0,-0.261642 0.270081,-0.430443 0.692084,-0.430443 0.447324,0 0.877767,0.135041 1.35885,0.422003 l 0.557044,-0.742725 c -0.548604,-0.362923 -1.164728,-0.548604 -1.806173,-0.548604 -1.122528,0 -1.831493,0.540164 -1.831493,1.39261 0,0.708965 0.464204,1.139408 1.33353,1.274449 l 0.844006,0.126601 c 0.379802,0.05908 0.548604,0.185681 0.548604,0.413563 0,0.278522 -0.337603,0.464203 -0.852446,0.464203 -0.464204,0 -0.911527,-0.160361 -1.426371,-0.497964 z"
           id="path1" />
        <path
           style="fill:#133c55"
           d="m 33.273049,37.119738 c -1.097208,0 -1.924334,-0.827126 -1.924334,-1.907453 0,-1.097208 0.818686,-1.924334 1.890573,-1.924334 0.633005,0 1.206929,0.278522 1.628932,0.801806 l 0.827126,-0.818686 c -0.548604,-0.675205 -1.502331,-1.105648 -2.456058,-1.105648 -1.772412,0 -3.148142,1.325089 -3.148142,3.046862 0,1.713332 1.36729,3.038421 3.148142,3.038421 0.928407,0 1.856813,-0.422003 2.422297,-1.088768 L 34.85978,36.368573 c -0.413563,0.489523 -0.962167,0.751165 -1.586731,0.751165 z m 2.65862,-1.147848 c 0,1.282889 1.029687,2.278816 2.346336,2.278816 1.316649,0 2.346337,-0.995927 2.346337,-2.278816 0,-1.282889 -1.029688,-2.287256 -2.346337,-2.287256 -1.316649,0 -2.346336,1.004367 -2.346336,2.287256 z m 2.346336,1.274449 c -0.683645,0 -1.215368,-0.565484 -1.215368,-1.274449 0,-0.725845 0.540163,-1.282889 1.215368,-1.282889 0.683645,0 1.215369,0.557044 1.215369,1.282889 0,0.708965 -0.531724,1.274449 -1.215369,1.274449 z m 3.055295,0.919967 h 1.156288 v -3.046862 c 0.202562,-0.286962 0.514844,-0.438883 0.903087,-0.438883 0.557043,0 0.911526,0.362922 0.911526,0.919966 v 2.565779 h 1.156288 v -2.73458 c 0,-1.029687 -0.717405,-1.747092 -1.738652,-1.747092 -0.481084,0 -0.894646,0.151921 -1.232249,0.430443 V 33.769034 H 41.3333 Z m 5.004959,0 h 1.156288 v -3.046862 c 0.202562,-0.286962 0.514844,-0.438883 0.903087,-0.438883 0.557044,0 0.911526,0.362922 0.911526,0.919966 v 2.565779 h 1.156288 v -2.73458 c 0,-1.029687 -0.717405,-1.747092 -1.738652,-1.747092 -0.481083,0 -0.894646,0.151921 -1.232249,0.430443 v -0.346043 h -1.156288 z m 8.946467,-0.548604 -0.759605,-0.692085 c -0.236322,0.227881 -0.582364,0.354482 -0.970607,0.354482 -0.607684,0 -1.088768,-0.371362 -1.249129,-0.919966 h 3.274743 v -0.303842 c 0,-1.35041 -0.928406,-2.363217 -2.177535,-2.363217 -1.274449,0 -2.261936,1.004367 -2.261936,2.278816 0,1.282889 1.029687,2.278816 2.363216,2.278816 0.700525,0 1.240689,-0.194121 1.780853,-0.633004 z m -1.907453,-2.970901 c 0.506403,0 0.928406,0.362922 1.071887,0.886206 h -2.152215 c 0.143481,-0.540164 0.548604,-0.886206 1.080328,-0.886206 z m 5.097794,2.591098 c -0.683645,0 -1.206929,-0.540164 -1.206929,-1.266009 0,-0.725845 0.514844,-1.282889 1.181609,-1.282889 0.413562,0 0.768045,0.177241 1.088767,0.531724 l 0.708965,-0.751166 c -0.455763,-0.497963 -1.122528,-0.784925 -1.823053,-0.784925 -1.299769,0 -2.304136,1.004367 -2.304136,2.287256 0,1.282889 1.004367,2.278816 2.304136,2.278816 0.675205,0 1.33353,-0.286962 1.789293,-0.784925 l -0.692085,-0.717405 c -0.312282,0.337602 -0.649884,0.489523 -1.046567,0.489523 z m 3.021541,-0.312282 c 0,0.860886 0.506404,1.308209 1.485451,1.308209 0.253202,0 0.649884,-0.05908 0.894646,-0.135041 v -0.945287 c -0.227882,0.07596 -0.396683,0.101281 -0.616124,0.101281 -0.447323,0 -0.607685,-0.151921 -0.607685,-0.565484 v -1.949654 h 1.249129 v -0.970607 h -1.249129 v -1.384169 l -1.156288,0.261642 v 1.122527 h -0.903086 v 0.970607 h 0.903086 z"
           id="path2" />
      </g>
    </g>
  </g>
</svg>
